{"title":"Manjhi The Mountain Man (2015) - DesiSCR - x264 - AAC - Team IcT","uid":12212486,"size":1929933657,"categoryP":"video","categoryS":"movies","magnet":"?xt=urn:btih:c32c551f7d23ed322ec6b95da6aff90c6f5e2b74&amp;dn=Manjhi+The+Mountain+Man+%282015%29+-+DesiSCR+-+x264+-+AAC+-+Team+IcT&amp;tr=udp%3A%2F%2Ftracker.openbittorrent.com%3A80&amp;tr=udp%3A%2F%2Fopen.demonii.com%3A1337&amp;tr=udp%3A%2F%2Ftracker.coppersurfer.tk%3A6969&amp;tr=udp%3A%2F%2Fexodus.desync.com%3A6969","seeders":19,"leechers":7,"uploader":"SS132203","files":2,"time":1439137959,"description":"Manjhi The Mountain Man (2015) - DesiSCR - x264 - AAC - Team IcTv -=SPARROW}=-\n &lt;a href=&quot;\nhttp://imgsparrow.co/image/8En&quot; rel=&quot;nofollow&quot; target=&quot;_NEW&quot;&gt;\nhttp://imgsparrow.co/image/8En&lt;/a&gt;\n &lt;a href=&quot;\nhttp://imgsparrow.co/image/8Jf&quot; rel=&quot;nofollow&quot; target=&quot;_NEW&quot;&gt;\nhttp://imgsparrow.co/image/8Jf&lt;/a&gt;\n &lt;a href=&quot;\nhttp://imgsparrow.co/image/9b&quot; rel=&quot;nofollow&quot; target=&quot;_NEW&quot;&gt;\nhttp://imgsparrow.co/image/9b&lt;/a&gt;\n\nAll Credits to Team IcTv\n\nInfo : - \n\nFormat                      : MPEG-4\nFormat profile              : Base Media / Version 2\nCodec ID                    : mp42\nFile size                   : 1.80 GiB\nDuration                    : 2h 1mn\nOverall bit rate            : 2 112 Kbps\n\nVideo\nID                          : 1\nFormat                      : AVC\nFormat/Info                 : Advanced Video Codec\nFormat profile              : Baseline@L3\nFormat settings, CABAC      : No\nFormat settings, ReFrames   : 2 frames\nFormat settings, GOP        : M=1, N=24\nCodec ID                    : avc1\nCodec ID/Info               : Advanced Video Coding\nDuration                    : 2h 1mn\nBit rate                    : 2 012 Kbps\nWidth                       : 720 pixels\nHeight                      : 576 pixels\nDisplay aspect ratio        : 5:4\nFrame rate mode             : Constant\nFrame rate                  : 24.000 fps\nStandard                    : PAL\nColor space                 : YUV\nChroma subsampling          : 4:2:0\nBit depth                   : 8 bits\nScan type                   : Progressive\nBits/(Pixel*Frame)          : 0.202\nStream size                 : 1.71 GiB (95%)\n\nAudio\nID                          : 2\nFormat                      : AAC\nFormat/Info                 : Advanced Audio Codec\nFormat profile              : LC\nCodec ID                    : 40\nDuration                    : 2h 1mn\nBit rate mode               : Constant\nBit rate                    : 96.0 Kbps\nChannel(s)                  : 2 channels\nChannel positions           : Front: L R\nSampling rate               : 44.1 KHz\nCompression mode            : Lossy\nStream size                 : 83.7 MiB (5%)\n\nScreens : - \n &lt;a href=&quot;\nhttp://imgsparrow.co/image/8JI&quot; rel=&quot;nofollow&quot; target=&quot;_NEW&quot;&gt;\nhttp://imgsparrow.co/image/8JI&lt;/a&gt; &lt;a href=&quot;\nhttp://imgsparrow.co/image/8JP&quot; rel=&quot;nofollow&quot; target=&quot;_NEW&quot;&gt;\nhttp://imgsparrow.co/image/8JP&lt;/a&gt; &lt;a href=&quot;\nhttp://imgsparrow.co/image/8JW&quot; rel=&quot;nofollow&quot; target=&quot;_NEW&quot;&gt;\nhttp://imgsparrow.co/image/8JW&lt;/a&gt; &lt;a href=&quot;\nhttp://imgsparrow.co/image/8JX&quot; rel=&quot;nofollow&quot; target=&quot;_NEW&quot;&gt;\nhttp://imgsparrow.co/image/8JX&lt;/a&gt; &lt;a href=&quot;\nhttp://imgsparrow.co/image/8JY&quot; rel=&quot;nofollow&quot; target=&quot;_NEW&quot;&gt;\nhttp://imgsparrow.co/image/8JY&lt;/a&gt; &lt;a href=&quot;\nhttp://imgsparrow.co/image/8Jc&quot; rel=&quot;nofollow&quot; target=&quot;_NEW&quot;&gt;\nhttp://imgsparrow.co/image/8Jc&lt;/a&gt; &lt;a href=&quot;\nhttp://imgsparrow.co/image/8Jd&quot; rel=&quot;nofollow&quot; target=&quot;_NEW&quot;&gt;\nhttp://imgsparrow.co/image/8Jd&lt;/a&gt; &lt;a href=&quot;\nhttp://imgsparrow.co/image/8Jo&quot; rel=&quot;nofollow&quot; target=&quot;_NEW&quot;&gt;\nhttp://imgsparrow.co/image/8Jo&lt;/a&gt; &lt;a href=&quot;\nhttp://imgsparrow.co/image/8JM&quot; rel=&quot;nofollow&quot; target=&quot;_NEW&quot;&gt;\nhttp://imgsparrow.co/image/8JM&lt;/a&gt; &lt;a href=&quot;\nhttp://imgsparrow.co/image/8Jm&quot; rel=&quot;nofollow&quot; target=&quot;_NEW&quot;&gt;\nhttp://imgsparrow.co/image/8Jm&lt;/a&gt;\n &lt;a href=&quot;\nhttp://imgsparrow.co/image/N2&quot; rel=&quot;nofollow&quot; target=&quot;_NEW&quot;&gt;\nhttp://imgsparrow.co/image/N2&lt;/a&gt;","torrent":{"xt":"urn:btih:c32c551f7d23ed322ec6b95da6aff90c6f5e2b74","amp;dn":"Manjhi+The+Mountain+Man+%282015%29+-+DesiSCR+-+x264+-+AAC+-+Team+IcT","amp;tr":["udp%3A%2F%2Ftracker.openbittorrent.com%3A80","udp%3A%2F%2Fopen.demonii.com%3A1337","udp%3A%2F%2Ftracker.coppersurfer.tk%3A6969","udp%3A%2F%2Fexodus.desync.com%3A6969"],"infoHash":"c32c551f7d23ed322ec6b95da6aff90c6f5e2b74","infoHashBuffer":{"type":"Buffer","data":[195,44,85,31,125,35,237,50,46,198,185,93,166,175,249,12,111,94,43,116]},"announce":[],"urlList":[]}}